#!OML:ASF F:\VICON\USERDATA\INSTALL\rory3\rory3.ASF
:FULLY-SPECIFIED
:DEGREES
301
root 1.05224 17.8741 25.5253 -2.83946 1.42942 0.969014
lowerback 9.88849 -0.793354 -3.04319
upperback 0.681527 -1.32614 1.3172
thorax -4.7363 -0.579118 3.27323
lowerneck -15.9508 -2.3992 -2.04345
upperneck 19.6311 -2.94118 0.607977
head 8.81355 -1.47104 0.185903
rclavicle -5.26779e-015 -1.59028e-015
rhumerus -32.1811 -24.1202 -76.6005
rradius 25.6355
rwrist 5.63186
rhand -15.3862 17.5149
rfingers 7.12502
rthumb 10.7922 -12.1878
lclavicle -5.26779e-015 -1.59028e-015
lhumerus -23.8312 -4.63794 83.2492
lradius 29.4138
lwrist 7.52933
lhand -27.4605 27.2823
lfingers 7.12502
lthumb -0.864811 57.2602
rfemur -29.9595 1.07323 20.5905
rtibia 42.0302
rfoot -7.26937 -12.6607
rtoes -3.45956
lfemur 4.27904 -0.161039 -26.9095
ltibia 20.1024
lfoot -16.973 -2.98814
ltoes 5.99876
302
root 1.05754 17.8657 25.6931 -2.51652 1.79365 1.57049
lowerback 9.60266 -0.927548 -3.59458
upperback 0.673915 -1.56379 1.16228
thorax -4.55563 -0.690913 3.4462
lowerneck -16.3188 -2.41302 -2.10923
upperneck 19.7258 -2.97054 0.761576
head 8.91694 -1.47131 0.240331
rclavicle 1.4884e-014 -1.19271e-015
rhumerus -32.2866 -24.5058 -76.4556
rradius 25.1595
rwrist 4.82692
rhand -15.3392 17.484
rfingers 7.12502
rthumb 10.8375 -12.2164
lclavicle 1.4884e-014 -1.19271e-015
lhumerus -23.3023 -5.05847 83.2276
lradius 29.5727
lwrist 8.08318
lhand -27.727 26.7229
lfingers 7.12502
lthumb -1.12222 56.6996
rfemur -30.1805 1.15317 19.7818
rtibia 39.2243
rfoot -5.9937 -12.9885
rtoes -4.04826
lfemur 5.08879 -0.291619 -27.6114
ltibia 19.0679
lfoot -16.8664 -3.08087
ltoes 6.44229
303
root 1.05594 17.8534 25.8628 -2.30347 2.00741 1.71353
lowerback 9.4196 -1.0555 -3.78796
upperback 0.689156 -1.74725 1.17534
thorax -4.41555 -0.781577 3.58659
lowerneck -16.4315 -2.39997 -2.15305
upperneck 19.5989 -2.94149 0.782339
head 8.89453 -1.45824 0.257581
rclavicle 9.83984e-015 1.11319e-014
rhumerus -32.2562 -24.5804 -76.4356
rradius 24.6356
rwrist 3.65177
rhand -16.5728 20.8198
rfingers 7.12502
rthumb 9.64756 -8.93924
lclavicle 9.83984e-015 1.11319e-014
lhumerus -22.7817 -5.48484 83.2044
lradius 29.6516
lwrist 8.5249
lhand -27.5013 27.1899
lfingers 7.12502
lthumb -0.904288 57.1677
rfemur -30.1813 1.44902 19.4817
rtibia 36.4099
rfoot -4.96112 -13.3216
rtoes -4.68625
lfemur 6.09634 0.027656 -27.7573
ltibia 17.9087
lfoot -16.8849 -2.87373
ltoes 4.33716
304
root 1.0527 17.8412 26.0373 -2.17149 2.26458 1.8584
lowerback 9.35654 -1.15411 -3.94775
upperback 0.513093 -1.89663 1.15212
thorax -4.54705 -0.846221 3.67299
lowerneck -16.0116 -2.44389 -2.12453
upperneck 19.4423 -3.00815 0.737145
head 8.76452 -1.49453 0.23508
rclavicle 8.4732e-015 -1.19271e-014
rhumerus -32.9493 -24.8773 -76.0347
rradius 24.7837
rwrist 3.58338
rhand -17.779 21.3705
rfingers 7.12502
rthumb 8.48359 -8.43914
lclavicle 8.4732e-015 -1.19271e-014
lhumerus -22.8374 -6.06599 83.2364
lradius 29.9319
lwrist 8.94743
lhand -27.6767 26.4396
lfingers 7.12502
lthumb -1.0737 56.4166
rfemur -30.0504 1.85278 19.1489
rtibia 33.6713
rfoot -4.26003 -13.7931
rtoes -3.79408
lfemur 7.22411 0.317078 -27.8609
ltibia 16.6922
lfoot -16.8229 -2.90233
ltoes 3.38178
305
root 1.04839 17.8273 26.2106 -2.03676 2.36341 1.88827
lowerback 9.26161 -1.18919 -3.98304
upperback 0.393748 -1.94599 1.13596
thorax -4.6138 -0.866296 3.68156
lowerneck -16.0092 -2.49763 -2.07164
upperneck 19.5954 -3.08232 0.66571
head 8.81541 -1.53315 0.192188
rclavicle 1.18525e-014 4.37326e-015
rhumerus -33.5499 -25.4605 -75.5369
rradius 24.7824
rwrist 4.24126
rhand -18.3493 20.111
rfingers 7.12502
rthumb 7.9332 -9.72011
lclavicle 1.18525e-014 4.37326e-015
lhumerus -22.7384 -6.29565 83.2047
lradius 30.147
lwrist 9.13024
lhand -27.967 25.3152
lfingers 7.12502
lthumb -1.35402 55.2907
rfemur -29.9718 2.44897 18.9614
rtibia 30.8571
rfoot -3.72511 -14.3088
rtoes -3.839
lfemur 8.20614 0.617866 -27.8289
ltibia 15.7181
lfoot -16.76 -2.98628
ltoes 3.73489
306
root 1.04195 17.815 26.3834 -1.82977 2.4354 1.9936
lowerback 9.02109 -1.21894 -4.17854
upperback 0.389928 -1.99504 1.16331
thorax -4.471 -0.890158 3.8183
lowerneck -16.1428 -2.56322 -2.27078
upperneck 19.6027 -3.15195 0.813904
head 8.84942 -1.56401 0.264903
rclavicle 1.56543e-015 9.54166e-015
rhumerus -33.6577 -25.6087 -75.3491
rradius 24.5626
rwrist 3.9126
rhand -17.7993 20.5207
rfingers 7.12502
rthumb 8.46403 -9.28968
lclavicle 1.56543e-015 9.54166e-015
lhumerus -22.3512 -6.1778 83.1974
lradius 30.2362
lwrist 9.08608
lhand -27.7301 25.367
lfingers 7.12502
lthumb -1.12519 55.3438
rfemur -29.9559 2.88045 18.7581
rtibia 28.1279
rfoot -3.68951 -14.633
rtoes -5.52
lfemur 9.13569 0.797995 -27.8917
ltibia 14.7524
lfoot -16.7549 -2.97963
ltoes 3.13848
307
root 1.03732 17.8057 26.5637 -1.63549 2.72146 1.69046
lowerback 8.87844 -1.33395 -3.88108
upperback 0.256222 -2.1085 1.28262
thorax -4.52602 -0.947697 3.78684
lowerneck -15.9775 -2.6355 -2.27179
upperneck 19.523 -3.23525 0.725042
head 8.79197 -1.61372 0.227235
rclavicle -1.03368e-014 -3.97569e-015
rhumerus -34.1275 -26.0378 -74.8601
rradius 24.1763
rwrist 3.70401
rhand -17.3398 21.534
rfingers 7.12502
rthumb 8.90746 -8.25796
lclavicle -1.03368e-014 -3.97569e-015
lhumerus -22.2108 -6.32589 83.2625
lradius 30.2997
lwrist 9.23739
lhand -27.7153 25.3766
lfingers 7.12502
lthumb -1.11093 55.3534
rfemur -29.7236 3.15809 18.9633
rtibia 25.4447
rfoot -4.58833 -14.9044
rtoes -6.01301
lfemur 10.1784 0.772021 -27.4916
ltibia 13.8175
lfoot -16.8372 -3.04312
ltoes 3.03432
